<svg width="18" height="17" viewBox="0 0 18 17" fill="none" xmlns="http://www.w3.org/2000/svg">
<path d="M2.53018 16.776H14.7425C16.1377 16.776 17.2727 15.6736 17.2727 14.3185V2.45742C17.2727 1.10238 16.1377 0 14.7425 0H2.53018C1.13502 0 0 1.10238 0 2.45742V14.3185C0 15.6736 1.13502 16.776 2.53018 16.776ZM1.01207 2.45742C1.01207 1.64442 1.69311 0.982966 2.53018 0.982966H14.7425C15.5796 0.982966 16.2606 1.64442 16.2606 2.45742V14.3185C16.2606 15.1315 15.5796 15.793 14.7425 15.793H2.53018C1.69311 15.793 1.01207 15.1315 1.01207 14.3185V2.45742Z" fill="white"/>
<path fill-rule="evenodd" clip-rule="evenodd" d="M5 13.0721L5.0175 3.23499C5.0175 3.17312 5.04188 3.11312 5.08562 3.06937C5.13062 3.025 5.18999 3 5.25249 3H9.51232C10.9898 3 12.3422 3.78497 12.3397 5.41115C12.3391 6.39923 12.0691 6.94984 11.5485 7.40232L11.3116 7.58669L11.4822 7.65106C11.5504 7.67856 11.6135 7.70543 11.6635 7.73105C11.9603 7.88417 12.1372 8.04229 12.3228 8.24103C12.8728 8.82601 12.9678 9.37474 12.9678 10.2185C12.9678 12.309 11.0398 13.3064 9.29545 13.3064H5.23437C5.10437 13.3064 4.99938 13.2015 5 13.0721ZM12.4991 10.2185C12.4991 9.42536 12.4122 9.02038 11.981 8.56164C11.8191 8.3879 11.6835 8.26853 11.4491 8.14791C11.3197 8.08104 10.8529 7.93042 10.7066 7.84105L10.6866 7.8273C10.5491 7.73105 10.5548 7.52419 10.6979 7.43607C11.5066 6.93484 11.871 6.53048 11.8716 5.41053C11.8728 4.13183 10.8466 3.46873 9.51232 3.46873H5.48498L5.46873 12.8377H9.29545C10.9254 12.8377 12.4991 11.9259 12.4991 10.2185ZM7.5674 11.494C7.4374 11.494 7.33241 11.389 7.33303 11.2597L7.33366 8.81226C7.33366 8.68289 7.43865 8.57789 7.56802 8.57789C8.123 8.57789 8.86359 8.50915 9.43044 8.63602C10.056 8.77664 10.5304 9.16849 10.5141 10.0403C10.4991 10.8815 10.0279 11.2659 9.41982 11.4128C8.85859 11.5484 8.13612 11.494 7.5674 11.494ZM9.30982 10.9572C9.74731 10.8515 10.0354 10.6259 10.046 10.0322C10.0573 9.41598 9.7723 9.19349 9.32795 9.0935C9.07796 9.03787 8.7961 9.026 8.49736 9.0285L7.80114 9.04225V11.0284L7.5674 11.0253C8.19987 11.0253 8.82109 11.0753 9.30982 10.9572ZM7.5674 7.32982C7.43803 7.32982 7.33303 7.22483 7.33303 7.09546V5.81863L7.33241 5.03554C7.33178 4.90617 7.43678 4.80055 7.56677 4.80055C8.01175 4.80055 8.5986 4.75118 9.04546 4.85617C9.55044 4.97429 9.93042 5.30115 9.93042 5.99925C9.93042 6.71922 9.61356 7.08983 9.10983 7.24045C8.67173 7.37107 8.08237 7.32982 7.5674 7.32982ZM8.97546 6.79109C9.2617 6.70547 9.46169 6.52985 9.46169 5.99925C9.46169 5.54677 9.26045 5.38803 8.93859 5.3124C8.65548 5.24678 8.31611 5.25553 7.94613 5.26366L7.80051 5.26616L7.80176 5.81801L7.80114 6.86359L7.5674 6.86109C8.14862 6.86109 8.6236 6.89609 8.97546 6.79109Z" fill="white"/>
</svg>
